<mxfile host="app.diagrams.net" modified="2024-03-04T05:42:48.555Z" agent="Mozilla/5.0 (Windows NT 10.0; Win64; x64) AppleWebKit/537.36 (KHTML, like Gecko) Chrome/121.0.0.0 Safari/537.36" etag="TaQvLU4xD7_bScyW7rtK" version="24.0.1" type="github">
  <diagram name="第 1 页" id="EGq3E5vETspPLSR2VidJ">
    <mxGraphModel dx="2261" dy="1907" grid="1" gridSize="10" guides="1" tooltips="1" connect="1" arrows="1" fold="1" page="1" pageScale="1" pageWidth="827" pageHeight="1169" math="0" shadow="0">
      <root>
        <mxCell id="0" />
        <mxCell id="1" parent="0" />
        <mxCell id="2" value="知识图谱" style="rounded=1;absoluteArcSize=1;arcSize=14;whiteSpace=wrap;strokeWidth=2;" parent="1" vertex="1">
          <mxGeometry x="-580" y="-360" width="140" height="34" as="geometry" />
        </mxCell>
        <mxCell id="3" value="节点" style="rounded=1;absoluteArcSize=1;arcSize=14;whiteSpace=wrap;strokeWidth=2;" parent="1" vertex="1">
          <mxGeometry x="-690" y="-276" width="49" height="34" as="geometry" />
        </mxCell>
        <mxCell id="4" value="边" style="rounded=1;absoluteArcSize=1;arcSize=14;whiteSpace=wrap;strokeWidth=2;" parent="1" vertex="1">
          <mxGeometry x="-390" y="-276" width="92" height="34" as="geometry" />
        </mxCell>
        <mxCell id="7" value="" style="curved=1;startArrow=none;endArrow=block;exitX=0.0011160714285714285;exitY=0.9657096441432815;entryX=0.4955357142857143;entryY=0;" parent="1" source="2" target="3" edge="1">
          <mxGeometry relative="1" as="geometry">
            <Array as="points">
              <mxPoint x="-696" y="-301" />
            </Array>
          </mxGeometry>
        </mxCell>
        <mxCell id="10" value="" style="curved=1;startArrow=none;endArrow=block;exitX=1.0028459821428573;exitY=0.9221352504451239;entryX=0.5;entryY=0;entryDx=0;entryDy=0;" parent="1" source="2" target="4" edge="1">
          <mxGeometry relative="1" as="geometry">
            <Array as="points">
              <mxPoint x="-305" y="-301" />
            </Array>
            <mxPoint x="-304.52734375" y="-276" as="targetPoint" />
          </mxGeometry>
        </mxCell>
        <mxCell id="P-F_Z9ekdY9hJIYS4DJG-10" value="&lt;span style=&quot;color: rgb(51, 51, 51); font-family: &amp;quot;PingFang SC&amp;quot;, &amp;quot;Microsoft YaHei&amp;quot;; font-size: 16px; font-style: normal; font-variant-ligatures: normal; font-variant-caps: normal; font-weight: 400; letter-spacing: normal; orphans: 2; text-align: justify; text-indent: 0px; text-transform: none; widows: 2; word-spacing: 0px; -webkit-text-stroke-width: 0px; white-space: normal; background-color: rgb(255, 255, 255); text-decoration-thickness: initial; text-decoration-style: initial; text-decoration-color: initial; display: inline !important; float: none;&quot;&gt;、或&lt;/span&gt;" style="text;whiteSpace=wrap;html=1;" vertex="1" parent="1">
          <mxGeometry x="-480" y="-460" width="420" height="40" as="geometry" />
        </mxCell>
        <mxCell id="P-F_Z9ekdY9hJIYS4DJG-11" value="实体（entity）" style="rounded=1;absoluteArcSize=1;arcSize=14;whiteSpace=wrap;strokeWidth=2;" vertex="1" parent="1">
          <mxGeometry x="-780" y="-210" width="90" height="34" as="geometry" />
        </mxCell>
        <mxCell id="P-F_Z9ekdY9hJIYS4DJG-12" value="概念（concept）" style="rounded=1;absoluteArcSize=1;arcSize=14;whiteSpace=wrap;strokeWidth=2;" vertex="1" parent="1">
          <mxGeometry x="-670" y="-210" width="110" height="34" as="geometry" />
        </mxCell>
        <mxCell id="P-F_Z9ekdY9hJIYS4DJG-13" value="属性值 （value）" style="rounded=1;absoluteArcSize=1;arcSize=14;whiteSpace=wrap;strokeWidth=2;" vertex="1" parent="1">
          <mxGeometry x="-540" y="-210" width="109" height="34" as="geometry" />
        </mxCell>
      </root>
    </mxGraphModel>
  </diagram>
</mxfile>
